<?xml version="1.0" encoding="utf-8"?>
<!-- Generator: Adobe Illustrator 23.0.3, SVG Export Plug-In . SVG Version: 6.00 Build 0)  -->
<svg version="1.1" id="Layer_1" xmlns="http://www.w3.org/2000/svg" xmlns:xlink="http://www.w3.org/1999/xlink" x="0px" y="0px"
	 viewBox="0 0 440 440" style="enable-background:new 0 0 440 440;" xml:space="preserve">
<style type="text/css">
	.st0{fill:#FFFFFF;}
</style>
<path class="st0" d="M347.5,40.7l34.4,66h-25v244.5l-43.1,0.2c0,0-0.8,0.4-2.6-3.8S239,184.3,239,184.3s-1.3-2.6-1.8-2.7
	c0,2-0.2,170-0.2,170l-45.8-0.3V106.7l61.1,0.1c0,0,2,0,3.4,2.4c1.3,2.4,54,122.2,54,122.2s1.9,4.5,2.8,4.1c0-1.8,0-128.7,0-128.7
	h-23l40.4-77.4C297.4,10.7,260,0,220,0C98.5,0,0,98.5,0,220c0,121.5,98.5,220,220,220c121.5,0,220-98.5,220-220
	C440,146,403.5,80.6,347.5,40.7z"/>
</svg>
