<svg xmlns="http://www.w3.org/2000/svg" data-name="Layer 1" viewBox="0 0 829 1244" class="undefined">
<defs class="undefined"><style class="undefined">  .cls-1{fill:none;stroke:#fff;stroke-miterlimit:10;stroke-width:2px;}</style></defs>
<title class="undefined">  AmosScroll</title>
<path class="cls-1" d="M829.5 11.5s-56 237-114 286-43 190-43 190-10-9 13-19 56-11 64 4 0 50 0 50-59-55-79-13c0 13 15 34 15 34s37 55 27 96-62 37-62 37-5-45-45-30c0 17 30 30 30 30s-85-39-57-86c27-23 57 13 57 13s2-69-19-90-56-67-139-41c17 43 99 37 99 37s8 78-116 147c-36 20-8 67-8 67s-17-41 13-43 174 10 196 25-26 18-26 18 26 105-34 78-124-96-124-96 6 78 65 100 95 32 93 39 43 97-87 98-286-245-282-320c-28 23-60-28-60-28s32 163-28 231-72 203-72 203 7 120 47 215" 
class="undefined"/>
</svg>