<?xml version="1.0" encoding="utf-8"?>
<!-- Generator: Adobe Illustrator 23.0.3, SVG Export Plug-In . SVG Version: 6.00 Build 0)  -->
<svg version="1.1" id="Layer_1" xmlns="http://www.w3.org/2000/svg" xmlns:xlink="http://www.w3.org/1999/xlink" x="0px" y="0px"
	 viewBox="0 0 440 440" style="enable-background:new 0 0 440 440;" xml:space="preserve">
<style type="text/css">
	.st0{fill:#18202A;}
</style>
<path class="st0" d="M347.2,41.3l34.2,65.6h-24.8v242.9l-42.8,0.2c0,0-0.8,0.4-2.6-3.8C309.4,342,239.4,184,239.4,184
	s-1.3-2.6-1.8-2.7c0,2-0.2,168.9-0.2,168.9l-45.5-0.3v-243l60.7,0.1c0,0,2,0,3.4,2.4c1.3,2.4,53.6,121.4,53.6,121.4s1.9,4.5,2.8,4.1
	c0-1.8,0-127.9,0-127.9h-22.8l40.1-76.9C297.5,11.5,260.3,0.9,220.6,0.9C99.9,0.9,2,98.7,2,219.4S99.9,438,220.6,438
	s218.6-97.9,218.6-218.6C439.1,145.9,402.9,80.9,347.2,41.3z"/>
</svg>
